<?xml version="1.0" encoding="UTF-8"?>
<svg version="1.1" xmlns="http://www.w3.org/2000/svg" width="920" height="868">
<path d="M0 0 C3.24707568 0.93299241 6.41131416 1.99231859 9.59082031 3.13427734 C11.328396 3.73780029 11.328396 3.73780029 13.10107422 4.35351562 C24.99399736 8.59114936 36.4100832 13.72073408 47.71582031 19.32177734 C48.62025879 19.76779297 49.52469727 20.21380859 50.45654297 20.67333984 C75.58214189 33.17445616 98.9964862 48.57196873 120.71582031 66.32177734 C121.27301758 66.77456055 121.83021484 67.22734375 122.40429688 67.69384766 C141.21086497 83.07512727 156.82622437 100.45878524 170.71582031 120.32177734 C174.3109513 119.73378677 177.1592386 118.76624905 180.39160156 117.09912109 C181.73834961 116.42067139 181.73834961 116.42067139 183.11230469 115.72851562 C184.55573242 115.00124268 184.55573242 115.00124268 186.02832031 114.25927734 C214.10012766 100.53160962 245.16506185 92.83734433 276.46582031 93.00927734 C277.5086467 93.01201157 277.5086467 93.01201157 278.57254028 93.01480103 C289.83276999 93.06428768 300.73172553 93.70148143 311.71582031 96.32177734 C312.42657715 96.48806641 313.13733398 96.65435547 313.86962891 96.82568359 C348.9718189 105.35444967 379.43095357 130.15502139 398.71582031 160.32177734 C406.75911935 173.72637904 414.86946355 188.87229689 416.27832031 204.69677734 C417.38808091 211.54423635 424.17618542 215.71383166 429.16259766 219.95263672 C432.3598401 222.77095417 435.02229352 226.03376644 437.71582031 229.32177734 C438.21984375 229.89927734 438.72386719 230.47677734 439.24316406 231.07177734 C442.71582031 235.07350865 442.71582031 235.07350865 442.71582031 237.32177734 C443.39644531 237.24958984 444.07707031 237.17740234 444.77832031 237.10302734 C509.55270849 230.90122422 582.22504971 248.85634557 640.71582031 276.32177734 C641.48619629 276.68013672 642.25657227 277.03849609 643.05029297 277.40771484 C672.05874297 291.00762267 672.05874297 291.00762267 677.71582031 302.32177734 C682.24091392 336.41424397 649.01525525 375.68458432 629.55175781 401.15185547 C613.65361335 421.72489483 596.11403318 440.99537583 576.71582031 458.32177734 C576.17924805 458.80308105 575.64267578 459.28438477 575.08984375 459.78027344 C563.46636028 470.12712664 550.75586638 479.16537639 537.71582031 487.63427734 C537.13453369 488.01342285 536.55324707 488.39256836 535.9543457 488.78320312 C531.96541631 491.32177734 531.96541631 491.32177734 529.71582031 491.32177734 C529.62945313 492.53607422 529.54308594 493.75037109 529.45410156 495.00146484 C526.39172343 533.8724809 515.49133113 572.16814167 498.71582031 607.32177734 C498.31669434 608.16772461 497.91756836 609.01367188 497.50634766 609.88525391 C484.10701165 638.1164628 466.87659004 663.92213244 445.80957031 687.00927734 C444.02677645 688.97833325 442.30463585 690.98067937 440.59082031 693.00927734 C432.3383405 702.45164959 423.31347272 711.38380442 413.46191406 719.14208984 C411.4355816 720.75047322 409.46078702 722.37814391 407.50097656 724.06396484 C406.95030518 724.53745361 406.39963379 725.01094238 405.83227539 725.4987793 C404.71665125 726.4609382 403.60318707 727.4256075 402.49194336 728.39282227 C399.2798142 731.14559634 396.09697939 733.29384759 392.40332031 735.38427734 C386.16346182 739.54081193 384.22490379 746.2759537 381.54785156 752.97412109 C379.79396955 757.32482894 377.53046745 760.9886596 374.64941406 764.69287109 C374.34132813 765.23041016 374.03324219 765.76794922 373.71582031 766.32177734 C374.96336122 770.06440008 376.23040943 770.58519344 379.46582031 772.75927734 C398.63839202 786.3294742 417.88640521 806.4889793 423.59472656 829.93115234 C425.03378277 838.3663749 424.98962631 844.86161942 421.09082031 852.50927734 C413.30132696 861.73367737 402.46324878 865.80923291 390.71582031 867.32177734 C384.62079618 867.73170817 378.50933091 867.7134186 372.40332031 867.69677734 C371.55345551 867.69523651 370.7035907 867.69369568 369.82797241 867.69210815 C356.73096669 867.63551396 344.35441666 867.03199791 331.71582031 863.32177734 C330.67458008 863.02094238 329.63333984 862.72010742 328.56054688 862.41015625 C299.94246083 853.93818335 275.88554599 840.8675594 253.65332031 821.00927734 C253.13680908 820.55415771 252.62029785 820.09903809 252.08813477 819.63012695 C248.54687296 816.39915573 246.26097355 813.03848244 243.71582031 808.94677734 C241.72488466 806.05369112 241.72488466 806.05369112 238.71582031 804.32177734 C232.91141599 803.8032245 227.12858177 805.29779592 221.54418945 806.75830078 C213.82303522 808.29653332 206.00293197 808.48713685 198.15332031 808.52490234 C197.17251495 808.53200729 196.19170959 808.53911224 195.18118286 808.5464325 C153.93225283 808.77722508 153.93225283 808.77722508 134.71582031 805.32177734 C133.4320752 805.09603027 132.14833008 804.8702832 130.82568359 804.63769531 C103.50866513 799.75566309 77.28016364 792.37291021 51.84277344 781.11865234 C49.44313656 780.21961484 47.26628808 779.60638114 44.71582031 779.32177734 C42.12914721 781.3286313 42.12914721 781.3286313 39.71582031 784.19677734 C12.13373748 813.52550748 -33.43946498 823.57719591 -72.14013672 825.24023438 C-95.2280433 825.83903549 -123.76263518 825.25627694 -141.87011719 808.88818359 C-146.01594568 804.46676534 -147.19729399 799.63876645 -147.35058594 793.78662109 C-146.51202745 776.12607112 -134.99161198 762.45648818 -123.28417969 750.32177734 C-122.63835937 749.61279297 -121.99253906 748.90380859 -121.32714844 748.17333984 C-104.37070844 730.07169366 -79.67598002 718.45450434 -56.28417969 711.32177734 C-60.31459839 706.4614317 -64.57324354 701.97196081 -69.09667969 697.57177734 C-74.94192739 691.79762669 -80.20798428 685.78798813 -85.28417969 679.32177734 C-86.18900154 678.22706704 -87.09671642 677.1347435 -88.00683594 676.04443359 C-130.28417969 625.02468359 -130.28417969 625.02468359 -130.28417969 606.32177734 C-131.45980469 606.25990234 -132.63542969 606.19802734 -133.84667969 606.13427734 C-155.85589703 603.59343166 -180.01465935 589.61603897 -196.65527344 575.56396484 C-198.37937376 574.11014847 -198.37937376 574.11014847 -201.28417969 573.32177734 C-202.98456264 571.68952326 -204.64661854 570.0170499 -206.28417969 568.32177734 C-208.13041267 566.62560104 -209.98505133 564.93854211 -211.84667969 563.25927734 C-216.27669003 559.22914528 -220.60399015 555.11127501 -224.84667969 550.88427734 C-225.3469165 550.38855225 -225.84715332 549.89282715 -226.36254883 549.38208008 C-233.28417969 542.43199929 -233.28417969 542.43199929 -233.28417969 539.32177734 C-233.94417969 539.32177734 -234.60417969 539.32177734 -235.28417969 539.32177734 C-240.81918974 530.69450403 -244.08341129 523.85386478 -242.28417969 513.32177734 C-238.6826632 505.06830206 -230.00327466 500.65659851 -221.96386719 497.48583984 C-206.97153477 492.74304254 -191.50123755 491.1389759 -175.84667969 491.19677734 C-174.77224609 491.19291016 -173.6978125 491.18904297 -172.59082031 491.18505859 C-171.0487793 491.18699219 -171.0487793 491.18699219 -169.47558594 491.18896484 C-168.08641968 491.19065674 -168.08641968 491.19065674 -166.66918945 491.19238281 C-164.28417969 491.32177734 -164.28417969 491.32177734 -161.28417969 492.32177734 C-161.35419189 491.40936279 -161.4242041 490.49694824 -161.49633789 489.55688477 C-166.77937046 416.52398096 -152.98265145 337.63874523 -109.28417969 277.32177734 C-108.52363281 276.26861328 -107.76308594 275.21544922 -106.97949219 274.13037109 C-94.01098008 256.56230019 -94.01098008 256.56230019 -89.49487305 252.8515625 C-85.36892889 249.12486923 -83.89320465 245.98771838 -83.41828918 240.39932251 C-83.25691427 237.19817195 -83.17010327 234.00149651 -83.13095093 230.79656982 C-83.07184788 226.31305346 -82.89328618 221.83373104 -82.72949219 217.35302734 C-82.68301796 215.97454117 -82.68301796 215.97454117 -82.63560486 214.56820679 C-80.31305172 150.25292464 -67.96701293 50.53352434 -21.28417969 2.32177734 C-15.64007683 -2.92562571 -7.05866735 -1.45769981 0 0 Z " fill="#FBD6DE" transform="translate(242.2841796875,0.67822265625)"/>
<path d="M0 0 C3.24707568 0.93299241 6.41131416 1.99231859 9.59082031 3.13427734 C11.328396 3.73780029 11.328396 3.73780029 13.10107422 4.35351562 C24.99399736 8.59114936 36.4100832 13.72073408 47.71582031 19.32177734 C48.62025879 19.76779297 49.52469727 20.21380859 50.45654297 20.67333984 C75.58214189 33.17445616 98.9964862 48.57196873 120.71582031 66.32177734 C121.27301758 66.77456055 121.83021484 67.22734375 122.40429688 67.69384766 C141.21086497 83.07512727 156.82622437 100.45878524 170.71582031 120.32177734 C174.3109513 119.73378677 177.1592386 118.76624905 180.39160156 117.09912109 C181.73834961 116.42067139 181.73834961 116.42067139 183.11230469 115.72851562 C184.55573242 115.00124268 184.55573242 115.00124268 186.02832031 114.25927734 C214.10012766 100.53160962 245.16506185 92.83734433 276.46582031 93.00927734 C277.5086467 93.01201157 277.5086467 93.01201157 278.57254028 93.01480103 C289.83276999 93.06428768 300.73172553 93.70148143 311.71582031 96.32177734 C312.42657715 96.48806641 313.13733398 96.65435547 313.86962891 96.82568359 C348.9718189 105.35444967 379.43095357 130.15502139 398.71582031 160.32177734 C406.75911935 173.72637904 414.86946355 188.87229689 416.27832031 204.69677734 C417.38808091 211.54423635 424.17618542 215.71383166 429.16259766 219.95263672 C432.3598401 222.77095417 435.02229352 226.03376644 437.71582031 229.32177734 C438.21984375 229.89927734 438.72386719 230.47677734 439.24316406 231.07177734 C442.71582031 235.07350865 442.71582031 235.07350865 442.71582031 237.32177734 C443.39644531 237.24958984 444.07707031 237.17740234 444.77832031 237.10302734 C509.55270849 230.90122422 582.22504971 248.85634557 640.71582031 276.32177734 C641.48619629 276.68013672 642.25657227 277.03849609 643.05029297 277.40771484 C672.05874297 291.00762267 672.05874297 291.00762267 677.71582031 302.32177734 C682.24091392 336.41424397 649.01525525 375.68458432 629.55175781 401.15185547 C613.65361335 421.72489483 596.11403318 440.99537583 576.71582031 458.32177734 C576.17924805 458.80308105 575.64267578 459.28438477 575.08984375 459.78027344 C563.46636028 470.12712664 550.75586638 479.16537639 537.71582031 487.63427734 C537.13453369 488.01342285 536.55324707 488.39256836 535.9543457 488.78320312 C531.96541631 491.32177734 531.96541631 491.32177734 529.71582031 491.32177734 C529.62945313 492.53607422 529.54308594 493.75037109 529.45410156 495.00146484 C526.39172343 533.8724809 515.49133113 572.16814167 498.71582031 607.32177734 C498.31669434 608.16772461 497.91756836 609.01367188 497.50634766 609.88525391 C484.10701165 638.1164628 466.87659004 663.92213244 445.80957031 687.00927734 C444.02677645 688.97833325 442.30463585 690.98067937 440.59082031 693.00927734 C432.3383405 702.45164959 423.31347272 711.38380442 413.46191406 719.14208984 C411.4355816 720.75047322 409.46078702 722.37814391 407.50097656 724.06396484 C406.95030518 724.53745361 406.39963379 725.01094238 405.83227539 725.4987793 C404.71665125 726.4609382 403.60318707 727.4256075 402.49194336 728.39282227 C399.2798142 731.14559634 396.09697939 733.29384759 392.40332031 735.38427734 C386.16346182 739.54081193 384.22490379 746.2759537 381.54785156 752.97412109 C379.79396955 757.32482894 377.53046745 760.9886596 374.64941406 764.69287109 C374.34132813 765.23041016 374.03324219 765.76794922 373.71582031 766.32177734 C374.96336122 770.06440008 376.23040943 770.58519344 379.46582031 772.75927734 C398.63839202 786.3294742 417.88640521 806.4889793 423.59472656 829.93115234 C425.03378277 838.3663749 424.98962631 844.86161942 421.09082031 852.50927734 C413.30132696 861.73367737 402.46324878 865.80923291 390.71582031 867.32177734 C384.62079618 867.73170817 378.50933091 867.7134186 372.40332031 867.69677734 C371.55345551 867.69523651 370.7035907 867.69369568 369.82797241 867.69210815 C356.73096669 867.63551396 344.35441666 867.03199791 331.71582031 863.32177734 C330.67458008 863.02094238 329.63333984 862.72010742 328.56054688 862.41015625 C299.94246083 853.93818335 275.88554599 840.8675594 253.65332031 821.00927734 C253.13680908 820.55415771 252.62029785 820.09903809 252.08813477 819.63012695 C248.54687296 816.39915573 246.26097355 813.03848244 243.71582031 808.94677734 C241.72488466 806.05369112 241.72488466 806.05369112 238.71582031 804.32177734 C232.91141599 803.8032245 227.12858177 805.29779592 221.54418945 806.75830078 C213.82303522 808.29653332 206.00293197 808.48713685 198.15332031 808.52490234 C197.17251495 808.53200729 196.19170959 808.53911224 195.18118286 808.5464325 C153.93225283 808.77722508 153.93225283 808.77722508 134.71582031 805.32177734 C133.4320752 805.09603027 132.14833008 804.8702832 130.82568359 804.63769531 C103.50866513 799.75566309 77.28016364 792.37291021 51.84277344 781.11865234 C49.44313656 780.21961484 47.26628808 779.60638114 44.71582031 779.32177734 C42.12914721 781.3286313 42.12914721 781.3286313 39.71582031 784.19677734 C12.13373748 813.52550748 -33.43946498 823.57719591 -72.14013672 825.24023438 C-95.2280433 825.83903549 -123.76263518 825.25627694 -141.87011719 808.88818359 C-146.01594568 804.46676534 -147.19729399 799.63876645 -147.35058594 793.78662109 C-146.51202745 776.12607112 -134.99161198 762.45648818 -123.28417969 750.32177734 C-122.63835937 749.61279297 -121.99253906 748.90380859 -121.32714844 748.17333984 C-104.37070844 730.07169366 -79.67598002 718.45450434 -56.28417969 711.32177734 C-60.31459839 706.4614317 -64.57324354 701.97196081 -69.09667969 697.57177734 C-74.94192739 691.79762669 -80.20798428 685.78798813 -85.28417969 679.32177734 C-86.18900154 678.22706704 -87.09671642 677.1347435 -88.00683594 676.04443359 C-130.28417969 625.02468359 -130.28417969 625.02468359 -130.28417969 606.32177734 C-131.45980469 606.25990234 -132.63542969 606.19802734 -133.84667969 606.13427734 C-155.85589703 603.59343166 -180.01465935 589.61603897 -196.65527344 575.56396484 C-198.37937376 574.11014847 -198.37937376 574.11014847 -201.28417969 573.32177734 C-202.98456264 571.68952326 -204.64661854 570.0170499 -206.28417969 568.32177734 C-208.13041267 566.62560104 -209.98505133 564.93854211 -211.84667969 563.25927734 C-216.27669003 559.22914528 -220.60399015 555.11127501 -224.84667969 550.88427734 C-225.3469165 550.38855225 -225.84715332 549.89282715 -226.36254883 549.38208008 C-233.28417969 542.43199929 -233.28417969 542.43199929 -233.28417969 539.32177734 C-233.94417969 539.32177734 -234.60417969 539.32177734 -235.28417969 539.32177734 C-240.81918974 530.69450403 -244.08341129 523.85386478 -242.28417969 513.32177734 C-238.6826632 505.06830206 -230.00327466 500.65659851 -221.96386719 497.48583984 C-206.97153477 492.74304254 -191.50123755 491.1389759 -175.84667969 491.19677734 C-174.77224609 491.19291016 -173.6978125 491.18904297 -172.59082031 491.18505859 C-171.0487793 491.18699219 -171.0487793 491.18699219 -169.47558594 491.18896484 C-168.08641968 491.19065674 -168.08641968 491.19065674 -166.66918945 491.19238281 C-164.28417969 491.32177734 -164.28417969 491.32177734 -161.28417969 492.32177734 C-161.35419189 491.40936279 -161.4242041 490.49694824 -161.49633789 489.55688477 C-166.77937046 416.52398096 -152.98265145 337.63874523 -109.28417969 277.32177734 C-108.52363281 276.26861328 -107.76308594 275.21544922 -106.97949219 274.13037109 C-94.01098008 256.56230019 -94.01098008 256.56230019 -89.49487305 252.8515625 C-85.36892889 249.12486923 -83.89320465 245.98771838 -83.41828918 240.39932251 C-83.25691427 237.19817195 -83.17010327 234.00149651 -83.13095093 230.79656982 C-83.07184788 226.31305346 -82.89328618 221.83373104 -82.72949219 217.35302734 C-82.68301796 215.97454117 -82.68301796 215.97454117 -82.63560486 214.56820679 C-80.31305172 150.25292464 -67.96701293 50.53352434 -21.28417969 2.32177734 C-15.64007683 -2.92562571 -7.05866735 -1.45769981 0 0 Z M-24.07714844 12.80224609 C-33.99463638 27.95453179 -41.71544694 45.20716666 -47.58789062 62.31689453 C-48.34891436 64.50817324 -49.14666271 66.68408193 -49.94824219 68.86083984 C-57.02932775 88.27190005 -62.15874167 108.08691586 -66.53417969 128.25927734 C-66.70094208 129.02488983 -66.86770447 129.79050232 -67.03952026 130.57931519 C-71.08944945 149.27594867 -73.92511111 167.98987457 -75.97167969 187.00927734 C-76.08256927 188.02716339 -76.19345886 189.04504944 -76.30770874 190.09378052 C-78.18412901 207.57195507 -78.94808627 224.75174491 -78.28417969 242.32177734 C-74.32417969 239.35177734 -74.32417969 239.35177734 -70.28417969 236.32177734 C-72.99686654 239.78833161 -75.84068733 243.04529211 -78.84667969 246.25927734 C-84.2107123 252.12741875 -89.10358337 258.29073929 -93.94482422 264.59277344 C-95.20579376 266.22058719 -96.49225467 267.82856257 -97.78027344 269.43505859 C-114.40156309 290.36458652 -128.54125272 315.04404001 -137.28417969 340.32177734 C-137.62255859 341.27455566 -137.9609375 342.22733398 -138.30957031 343.20898438 C-145.08603944 362.36953742 -150.00468812 381.37742034 -153.47167969 401.38427734 C-153.62677002 402.26817139 -153.78186035 403.15206543 -153.94165039 404.06274414 C-156.83316434 421.69388832 -157.61185708 439.279732 -157.54492188 457.12182617 C-157.53424465 460.48879222 -157.54486638 463.85521838 -157.55761719 467.22216797 C-157.56445647 479.7582242 -157.09235027 492.16066795 -155.98297119 504.65019226 C-155.8938446 505.65596817 -155.80471802 506.66174408 -155.71289062 507.69799805 C-155.58959381 509.00520561 -155.58959381 509.00520561 -155.46380615 510.33882141 C-155.22368579 514.32636561 -155.28417969 518.32700995 -155.28417969 522.32177734 C-156.60417969 513.74177734 -157.92417969 505.16177734 -159.28417969 496.32177734 C-198.22836425 494.53452577 -198.22836425 494.53452577 -233.28417969 509.32177734 C-236.65484442 512.54589144 -238.11237976 514.40030502 -238.97167969 519.00927734 C-238.28683319 528.7266939 -230.37667868 537.29686112 -224.28417969 544.32177734 C-223.47078125 545.26923828 -222.65738281 546.21669922 -221.81933594 547.19287109 C-206.34916714 564.84662139 -186.90112439 578.30824438 -166.28417969 589.32177734 C-165.17042969 589.93666016 -164.05667969 590.55154297 -162.90917969 591.18505859 C-153.92333106 595.95368508 -142.65289087 601.32177734 -132.28417969 601.32177734 C-133.63770175 597.16141231 -135.12531202 593.08225278 -136.72167969 589.00927734 C-139.74813053 581.17611046 -142.26200435 573.46460267 -144.28417969 565.32177734 C-143.76621826 566.51440186 -143.24825684 567.70702637 -142.71459961 568.93579102 C-127.89557625 603.00424512 -112.72995164 635.46321931 -90.28417969 665.32177734 C-89.8663623 665.8823584 -89.44854492 666.44293945 -89.01806641 667.02050781 C-81.73971389 676.73135516 -73.73590639 685.6225623 -65.28417969 694.32177734 C-64.19314941 695.44567871 -64.19314941 695.44567871 -63.08007812 696.59228516 C-54.51692342 705.37323947 -45.96701362 713.78103523 -36.28417969 721.32177734 C-34.04231477 723.160823 -31.81904675 725.02174697 -29.59667969 726.88427734 C-28.57203528 727.73986009 -27.54730476 728.59533973 -26.52246094 729.45068359 C-25.78382813 730.06814453 -25.04519531 730.68560547 -24.28417969 731.32177734 C-30.83495558 727.70955872 -36.70824792 724.06158803 -42.47167969 719.32177734 C-47.02395378 715.7186294 -47.02395378 715.7186294 -52.53417969 714.88427734 C-54.79409342 715.40087103 -54.79409342 715.40087103 -57.28417969 716.32177734 C-59.04181641 716.89412109 -59.04181641 716.89412109 -60.83496094 717.47802734 C-80.04799411 724.05253931 -97.84978566 734.13238608 -113.28417969 747.32177734 C-114.115625 748.01916016 -114.94707031 748.71654297 -115.80371094 749.43505859 C-128.16983804 760.12957404 -140.88473625 774.92105297 -142.52636719 791.81396484 C-142.86457735 798.51848396 -141.44541014 801.8082955 -136.91699219 806.84130859 C-127.63335581 815.96328961 -113.62372675 817.57216264 -101.28417969 819.32177734 C-99.46466797 819.60214844 -99.46466797 819.60214844 -97.60839844 819.88818359 C-64.69682936 823.86601944 -29.43119044 817.60776021 0.71582031 804.32177734 C1.44865234 803.99951172 2.18148437 803.67724609 2.93652344 803.34521484 C17.14329575 796.96189797 30.6434821 788.39001668 40.71582031 776.32177734 C40.71582031 775.66177734 40.71582031 775.00177734 40.71582031 774.32177734 C39.72324219 773.78810547 38.73066406 773.25443359 37.70800781 772.70458984 C30.55035661 768.80049703 23.59966197 764.759987 16.96582031 760.00927734 C16.10899658 759.39753662 16.10899658 759.39753662 15.23486328 758.7734375 C12.13208939 756.50613316 9.35176586 754.11767105 6.71582031 751.32177734 C9.29513045 752.61143241 11.68124456 754.17844658 14.12109375 755.7109375 C34.53569841 768.44276732 56.15241085 779.89817758 79.35229492 786.6027832 C81.53510556 787.26680317 83.63809388 788.02402396 85.76269531 788.85302734 C90.08105799 790.51626833 94.48499026 791.68232854 98.96582031 792.82177734 C99.8042749 793.03753418 100.64272949 793.25329102 101.5065918 793.47558594 C103.16752041 793.9023023 104.82888391 794.3273303 106.49072266 794.75048828 C108.3257977 795.22163987 110.15626147 795.71071367 111.98535156 796.20458984 C127.50096001 800.32761866 143.24208507 801.9110938 159.20898438 803.07226562 C161.71582031 803.32177734 161.71582031 803.32177734 164.56713867 803.8359375 C200.7506913 809.41903975 241.10045682 800.74882798 275.71582031 790.32177734 C252.91454045 799.25368101 252.91454045 799.25368101 243.71582031 801.32177734 C246.13444144 806.88844502 250.62330459 810.94326219 254.71582031 815.32177734 C255.55306641 816.24023438 255.55306641 816.24023438 256.40722656 817.17724609 C265.34899357 826.61204287 276.51470928 833.88599447 287.71582031 840.32177734 C288.31152832 840.6648291 288.90723633 841.00788086 289.52099609 841.36132812 C297.19531854 845.73886346 304.7829112 849.34266339 313.20410156 852.11865234 C316.0094627 853.07977718 318.67287116 854.14160548 321.39941406 855.29443359 C326.96543382 857.54435915 332.59558264 858.81604603 338.46582031 860.00927734 C339.96822266 860.32735352 339.96822266 860.32735352 341.50097656 860.65185547 C351.22492939 862.69324159 360.26643079 863.53283648 370.21582031 863.57177734 C372.14554688 863.60271484 372.14554688 863.60271484 374.11425781 863.63427734 C388.09012549 863.69051826 404.68852385 861.98870604 415.30957031 851.86865234 C419.81491693 846.91277107 420.31028514 842.08197506 420.12597656 835.59912109 C417.19902073 812.21135024 396.92132369 792.09514015 379.15332031 778.19677734 C373.74530284 773.28748589 373.74530284 773.28748589 367.27832031 771.57177734 C364.76191016 772.21104434 364.76191016 772.21104434 362.81738281 773.34912109 C357.00786447 776.03791304 350.52337012 774.27965197 344.78222656 772.19287109 C342.71582031 771.32177734 342.71582031 771.32177734 339.46582031 769.57177734 C335.65915946 767.84147696 333.49911288 768.68706022 329.62646484 770.06542969 C327.20863065 770.98152862 324.80522396 771.92710825 322.40332031 772.88427734 C319.53644531 774.01865234 316.66957031 775.15302734 313.71582031 776.32177734 C319.98582031 773.35177734 326.25582031 770.38177734 332.71582031 767.32177734 C332.71582031 766.66177734 332.71582031 766.00177734 332.71582031 765.32177734 C331.33879958 764.18847709 329.91087544 763.116943 328.46582031 762.07177734 C308.29015166 746.23373477 292.15663772 717.72044265 288.71582031 692.32177734 C288.71582031 691.00177734 288.71582031 689.68177734 288.71582031 688.32177734 C289.33457031 690.17416016 289.33457031 690.17416016 289.96582031 692.06396484 C297.45625295 714.17459602 306.09450786 733.67598657 321.71582031 751.32177734 C322.4003125 752.10166016 323.08480469 752.88154297 323.79003906 753.68505859 C328.05119015 758.24551419 332.63940342 761.85768962 337.84082031 765.25927734 C338.41469482 765.63713379 338.98856934 766.01499023 339.57983398 766.40429688 C345.58373184 770.16865235 351.631093 772.06753811 358.71582031 771.32177734 C366.2414283 769.1976138 370.65042824 763.73193912 374.71582031 757.32177734 C377.02863867 752.76008951 378.92151105 748.10839278 380.71582031 743.32177734 C381.26882813 741.92378906 381.26882813 741.92378906 381.83300781 740.49755859 C388.12456796 723.40304827 389.33325822 705.54542909 389.46582031 687.50927734 C389.49408743 685.53334113 389.52402903 683.55742814 389.55566406 681.58154297 C389.62823023 676.82833169 389.67856981 672.07539107 389.71582031 667.32177734 C391.76432861 675.67219567 392.07088692 683.74751688 392.02832031 692.32177734 C392.02782684 693.0037619 392.02733337 693.68574646 392.02682495 694.38839722 C392.00269266 705.28932015 391.0553154 715.66677124 388.71582031 726.32177734 C388.3711683 728.31985795 388.03363245 730.3192523 387.71582031 732.32177734 C403.99138426 725.0579815 418.67287651 708.54285653 431.09082031 696.19677734 C432.00597412 695.29088867 432.92112793 694.385 433.86401367 693.45166016 C439.90652672 687.38115472 445.38689284 681.02211998 450.71582031 674.32177734 C451.74031364 673.07853754 452.76728378 671.83733022 453.79785156 670.59912109 C465.64474234 656.18547457 475.56698305 640.55828166 484.71582031 624.32177734 C485.08771484 623.66983398 485.45960938 623.01789062 485.84277344 622.34619141 C493.29941831 609.18856673 499.02577487 595.31419079 504.71582031 581.32177734 C505.03180176 580.56010254 505.3477832 579.79842773 505.67333984 579.01367188 C517.16720793 551.23173821 525.04036143 518.50410151 524.71582031 488.32177734 C525.56402344 488.08201172 526.41222656 487.84224609 527.28613281 487.59521484 C531.10311002 486.17797729 534.2580462 484.23377449 537.59082031 481.94677734 C538.23647949 481.50906006 538.88213867 481.07134277 539.54736328 480.62036133 C564.43712495 463.57869571 588.27221057 443.47502316 607.71582031 420.32177734 C608.50988281 419.40525391 609.30394531 418.48873047 610.12207031 417.54443359 C617.70414189 408.76146196 624.78280806 399.6229747 631.71582031 390.32177734 C632.163125 389.72252441 632.61042969 389.12327148 633.07128906 388.50585938 C643.44257557 374.52456737 652.57208367 359.86515389 660.65332031 344.44677734 C661.18481689 343.43768311 661.71631348 342.42858887 662.26391602 341.38891602 C671.47832077 323.71908961 671.47832077 323.71908961 673.71582031 304.32177734 C656.14417901 278.79916712 611.84939727 269.11924766 583.71582031 260.32177734 C582.61947266 259.97630859 581.523125 259.63083984 580.39355469 259.27490234 C554.98044872 251.38082487 528.14872273 246.33386165 501.71582031 243.32177734 C500.87035645 243.22026367 500.02489258 243.11875 499.15380859 243.01416016 C481.36258309 240.93802598 463.59568925 241.10878523 445.71582031 241.32177734 C446.01230469 241.91474609 446.30878906 242.50771484 446.61425781 243.11865234 C447.98144531 245.85302734 449.34863281 248.58740234 450.71582031 251.32177734 C450.08417969 250.55736328 449.45253906 249.79294922 448.80175781 249.00537109 C443.51962381 242.66239849 438.10251737 236.47784563 432.46582031 230.44677734 C431.90040527 229.84148193 431.33499023 229.23618652 430.75244141 228.61254883 C429.08385301 226.83879322 427.40314249 225.07771343 425.71582031 223.32177734 C425.08611328 222.66145508 424.45640625 222.00113281 423.80761719 221.32080078 C422.87272461 220.35835449 422.87272461 220.35835449 421.91894531 219.37646484 C421.35336914 218.79106934 420.78779297 218.20567383 420.20507812 217.60253906 C418.79046527 216.10443092 418.79046527 216.10443092 416.71582031 216.32177734 C416.43867187 217.51416016 416.16152344 218.70654297 415.87597656 219.93505859 C415.51016508 221.50148211 415.1442756 223.06788742 414.77832031 224.63427734 C414.5047168 225.81280273 414.5047168 225.81280273 414.22558594 227.01513672 C414.04833984 227.77246094 413.87109375 228.52978516 413.68847656 229.31005859 C413.52613525 230.00655518 413.36379395 230.70305176 413.1965332 231.4206543 C412.77816466 233.07521794 412.25550662 234.70271843 411.71582031 236.32177734 C411.874375 235.38205078 412.03292969 234.44232422 412.19628906 233.47412109 C416.28777065 204.51398941 406.25583148 178.22024474 389.27832031 155.07177734 C385.01841487 149.56970393 380.48964902 144.3813634 375.71582031 139.32177734 C375.06613281 138.60763672 374.41644531 137.89349609 373.74707031 137.15771484 C358.43252643 120.95963958 337.26078575 107.08405234 315.34082031 102.25927734 C314.28507813 102.01854492 314.28507813 102.01854492 313.20800781 101.77294922 C311.81369073 101.45617463 310.41817845 101.14460159 309.0213623 100.83903503 C307.5549907 100.51004862 306.09201711 100.16521832 304.63439941 99.7993927 C299.29423622 98.49568068 294.31872553 98.0269138 288.83300781 98.05615234 C288.01567169 98.05423889 287.19833557 98.05232544 286.35623169 98.050354 C284.6368987 98.04900247 282.91755514 98.05262618 281.19824219 98.06103516 C278.61792008 98.0716657 276.03830748 98.06114775 273.45800781 98.04833984 C232.1853615 98.00793989 190.21181563 112.28722688 156.71582031 136.32177734 C156.10786621 136.7576416 155.49991211 137.19350586 154.87353516 137.64257812 C147.93705812 142.67720884 141.58648657 148.06916412 135.71582031 154.32177734 C130.71582031 159.32177734 130.71582031 159.32177734 128.86816406 161.02880859 C98.40787759 189.94120392 76.70350678 234.59742023 75.51269531 276.69677734 C75.15844361 302.0997634 80.28712886 326.51050112 91.71582031 349.32177734 C92.04952637 349.99047852 92.38323242 350.65917969 92.72705078 351.34814453 C97.8931126 361.5068619 104.11694212 369.87192068 111.71582031 378.32177734 C112.65658056 379.52757411 113.59473957 380.73541337 114.52832031 381.94677734 C129.12910747 398.70449897 151.09473432 408.23468849 172.71582031 411.32177734 C177.43283272 411.55602859 182.14888169 411.59210424 186.87084961 411.61694336 C188.37647971 411.62837771 189.88207209 411.64869151 191.38745117 411.6784668 C211.25757611 412.07013648 229.91171113 406.83221053 245.71582031 394.32177734 C246.4003125 393.80099609 247.08480469 393.28021484 247.79003906 392.74365234 C260.30993914 382.60966643 270.54548858 365.45050981 272.34082031 349.25927734 C273.72234801 333.85394016 272.44320092 319.52015212 263.71582031 306.32177734 C241.70672093 307.59153308 221.39583823 325.18292035 206.71582031 340.32177734 C213.86637929 324.6080976 233.77657117 312.722477 249.17285156 306.56396484 C255.26693728 304.42733942 261.40960929 302.72457454 267.71582031 301.32177734 C268.43366699 301.15605225 269.15151367 300.99032715 269.89111328 300.81958008 C280.51361854 298.60803669 291.43941017 298.35894993 302.24414062 297.7199707 C317.27911597 296.8171808 331.4487359 294.9156978 345.90332031 290.44677734 C346.74411133 290.19138184 347.58490234 289.93598633 348.45117188 289.67285156 C355.06064448 287.62246773 361.42260085 285.21256515 367.71582031 282.32177734 C346.08052079 295.00135544 326.65580744 299.3215322 301.74316406 300.81396484 C301.03902374 300.85643341 300.33488342 300.89890198 299.60940552 300.94265747 C296.07643303 301.15389311 292.54337113 301.35472477 289.00878906 301.53710938 C281.7486366 301.94193405 274.78809833 302.59176188 267.71582031 304.32177734 C268.73109045 307.44349581 269.79172554 310.51269049 271.00488281 313.56396484 C276.55430901 328.65450978 277.4363309 347.11303031 271.71582031 362.32177734 C271.36390625 363.31951172 271.01199219 364.31724609 270.64941406 365.34521484 C263.32743391 384.53218594 248.62985735 398.64997048 230.13671875 407.01855469 C216.9104117 412.81141956 204.67470948 414.73353689 190.34082031 414.69677734 C189.58492615 414.69656586 188.82903198 414.69635437 188.05023193 414.69613647 C160.8310226 414.62005279 137.17173385 406.72231201 116.71582031 388.32177734 C116.02101563 387.69787109 115.32621094 387.07396484 114.61035156 386.43115234 C98.12407611 370.76754533 85.94148019 349.09359369 79.71582031 327.32177734 C79.4 326.26345703 79.08417969 325.20513672 78.75878906 324.11474609 C67.24782302 283.6323599 72.50336604 242.28940698 92.71582031 205.32177734 C101.24903853 190.17325186 110.83877018 176.04559653 122.71582031 163.32177734 C123.88761858 161.97204875 125.05456115 160.61808404 126.21582031 159.25927734 C138.28961754 145.50779986 152.42124075 135.19684902 167.71582031 125.32177734 C164.01970488 117.79953237 159.17826606 111.64480741 153.71582031 105.32177734 C153.07257813 104.56638672 152.42933594 103.81099609 151.76660156 103.03271484 C140.82192319 90.51836747 128.95766362 78.3970929 115.71582031 68.32177734 C114.44407435 67.32293824 113.17331997 66.3228359 111.90332031 65.32177734 C96.03945923 52.90198296 79.35456923 42.04665247 61.71582031 32.32177734 C60.82765625 31.83177246 59.93949219 31.34176758 59.02441406 30.83691406 C16.04916802 4.83407729 16.04916802 4.83407729 -24.07714844 12.80224609 Z " fill="#0B0A0A" transform="translate(242.2841796875,0.67822265625)"/>
<path d="M0 0 C1.19351074 0.00427002 2.38702148 0.00854004 3.61669922 0.01293945 C12.60914887 0.18655545 19.6855882 1.31759732 27.75 5.5 C28.56726563 5.88414062 29.38453125 6.26828125 30.2265625 6.6640625 C36.35044112 9.75756819 41.57269048 14.03888497 46.75 18.5 C47.3790625 19.03238281 48.008125 19.56476563 48.65625 20.11328125 C56.47464133 27.27421695 62.19552602 37.56651467 65.75 47.5 C66.12125 48.49257813 66.4925 49.48515625 66.875 50.5078125 C73.10234181 69.83851937 71.64561485 94.0835037 63.25390625 112.5703125 C52.95957954 132.6241957 38.51350226 148.9801998 17.296875 157.69140625 C-1.14597999 163.54672984 -18.76113732 163.07599254 -36.3828125 155.078125 C-53.50837975 146.20526843 -67.0403357 130.90721918 -73.25 112.5 C-80.60432001 89.00703331 -78.64556267 64.39217145 -67.25 42.5 C-55.75661622 22.39289344 -38.50800681 7.6329218 -16.07861328 1.11083984 C-10.75157608 -0.03953536 -5.43063535 -0.02933625 0 0 Z " fill="#0A708D" transform="translate(586.25,425.5)"/>
<path d="M0 0 C12.82170799 10.93165542 21.96085478 24.9865257 24 42 C25.49824469 66.39131797 20.7269131 90.76750544 4.09423828 109.65283203 C1.79078872 112.16575878 -0.59607574 114.58262722 -3 117 C-3.74636719 117.79277344 -4.49273437 118.58554687 -5.26171875 119.40234375 C-19.97552541 134.01343623 -38.65306188 139.1847707 -58.81030273 139.33056641 C-73.57507621 139.14943997 -86.33985655 133.42053075 -96.89453125 123.17578125 C-97.58933594 122.45777344 -98.28414062 121.73976563 -99 121 C-99.56074219 120.43667969 -100.12148437 119.87335938 -100.69921875 119.29296875 C-113.45307788 105.53486875 -117.63114513 86.80566311 -117.26953125 68.48046875 C-116.44046662 49.83672472 -108.81395472 32.28925952 -97 18 C-96.31292969 17.15050781 -95.62585938 16.30101562 -94.91796875 15.42578125 C-71.27648425 -12.39023565 -30.71762034 -22.33242631 0 0 Z " fill="#0A708D" transform="translate(301,331)"/>
<path d="M0 0 C0.33 0.66 0.66 1.32 1 2 C-2.3 1.67 -5.6 1.34 -9 1 C-9.57105469 2.07894531 -10.14210938 3.15789062 -10.73046875 4.26953125 C-19.67762623 20.91221994 -30.29291744 36.19343465 -42 51 C-42.86979853 52.12529154 -43.73825347 53.2516227 -44.60546875 54.37890625 C-63.2679389 78.54750057 -84.55273217 104.12056576 -109.74609375 121.6171875 C-110.71059448 122.29019897 -110.71059448 122.29019897 -111.69458008 122.97680664 C-112.95301022 123.8475378 -114.21951492 124.70674746 -115.49487305 125.55249023 C-118.88676729 127.83821828 -118.88676729 127.83821828 -120.8984375 131.29296875 C-120.93195312 131.85628906 -120.96546875 132.41960937 -121 133 C-121.66 133 -122.32 133 -123 133 C-123.06993164 132.30777344 -123.13986328 131.61554688 -123.21191406 130.90234375 C-127.69608634 87.12759446 -137.102701 46.03768194 -154.4375 5.5 C-154.80681641 4.62730469 -155.17613281 3.75460937 -155.55664062 2.85546875 C-157.86222485 -2.53887909 -160.35177077 -7.78517943 -163.06665039 -12.98632812 C-164 -15 -164 -15 -164 -17 C-160.7521185 -17.65678773 -157.5013813 -18.29828286 -154.25 -18.9375 C-153.34894531 -19.11990234 -152.44789063 -19.30230469 -151.51953125 -19.49023438 C-106.16680031 -28.33562516 -39.72004881 -25.25507041 0 0 Z " fill="#424858" transform="translate(891,324)"/>
<path d="M0 0 C1.02480469 0.25652344 2.04960937 0.51304687 3.10546875 0.77734375 C25.12991006 6.90840089 40.376268 20.72675781 51.76953125 39.9921875 C63.63939831 62.16930621 66.27087162 91.89277546 59 116 C58.71793701 117.00933594 58.71793701 117.00933594 58.43017578 118.0390625 C53.81714271 134.42138521 46.5240546 150.32353994 35 163 C33.92105469 164.25490234 33.92105469 164.25490234 32.8203125 165.53515625 C20.66528003 179.4776935 6.49785677 189.79357338 -11 196 C-11.92917236 196.34345459 -12.85834473 196.68690918 -13.81567383 197.04077148 C-22.20253421 199.91639414 -29.73567275 200.5820492 -38.5625 200.4375 C-40.39844727 200.44813477 -40.39844727 200.44813477 -42.27148438 200.45898438 C-53.33421222 200.38244608 -63.2896802 198.45071412 -73.125 193.3125 C-73.80312744 192.96364746 -74.48125488 192.61479492 -75.17993164 192.25537109 C-95.02850241 181.72964967 -108.46813508 162.40986865 -115.0859375 141.23828125 C-123.15481614 112.65238214 -119.22916941 81.17286074 -104.93164062 55.04785156 C-100.32239308 47.17949889 -94.85426023 39.98107581 -89 33 C-88.56171875 32.43925781 -88.1234375 31.87851562 -87.671875 31.30078125 C-74.33204284 14.35919441 -52.7058084 3.46398062 -32 -1 C-31.19175781 -1.19335938 -30.38351563 -1.38671875 -29.55078125 -1.5859375 C-19.91451171 -3.15017115 -9.41404886 -2.38416578 0 0 Z M-25 22 C-25.9796875 22.3403125 -26.959375 22.680625 -27.96875 23.03125 C-50.85721579 31.7619019 -67.0159914 50.11951952 -77 72 C-84.53682567 90.51777938 -86.10575803 112.95713058 -78.25 131.75 C-77.5244571 133.17934669 -76.77229912 134.59536535 -76 136 C-75.52949219 136.93070312 -75.05898437 137.86140625 -74.57421875 138.8203125 C-66.62481413 153.65667149 -54.08172761 164.00911902 -38 169 C-16.99664915 173.42503831 3.25440437 168.54263067 21 157 C25.42328164 153.74025382 29.21763367 149.98355603 33 146 C33.80695313 145.19949219 34.61390625 144.39898437 35.4453125 143.57421875 C51.68105781 126.76059098 58.55428753 103.98894965 58.34912109 81.04321289 C57.862791 61.87949142 50.70771779 47.04757274 37 34 C30.96220443 28.47043638 24.60072086 24.98131724 17 22 C16.2678125 21.67902344 15.535625 21.35804688 14.78125 21.02734375 C2.81071351 16.49624279 -13.16068795 17.78139456 -25 22 Z " fill="#FBFBFB" transform="translate(267,300)"/>
<path d="M0 0 C22.00486139 6.47013392 41.42610121 32.89070437 54.77539062 50.41552734 C56.66887259 52.86542725 58.64797274 55.24234128 60.625 57.625 C67.90076426 66.49193669 74.58480656 75.75262442 81.1875 85.125 C81.76975342 85.94798584 82.35200684 86.77097168 82.9519043 87.61889648 C94 103.40121672 94 103.40121672 94 107 C93.23671387 107.33620361 92.47342773 107.67240723 91.68701172 108.01879883 C48.72650509 126.98749502 5.8472852 148.34313099 -30.06518555 179.08959961 C-34.69336029 183 -34.69336029 183 -38 183 C-37.17113281 182.1440625 -36.34226563 181.288125 -35.48828125 180.40625 C-33.47970427 177.97470284 -33.02037715 177.22916913 -32.73046875 173.96875 C-32.88128906 172.8240625 -33.03210938 171.679375 -33.1875 170.5 C-34.55620574 157.38190104 -34.16227176 144.17074 -34 131 C-33.99274902 130.15260254 -33.98549805 129.30520508 -33.97802734 128.43212891 C-33.46789909 90.13792519 -21.98325577 40.34367684 4 11 C5.01207608 9.67580976 6.01596009 8.34515547 7 7 C6.4946875 6.57847656 5.989375 6.15695313 5.46875 5.72265625 C4.49421875 4.90087891 4.49421875 4.90087891 3.5 4.0625 C2.52546875 3.24458984 2.52546875 3.24458984 1.53125 2.41015625 C1.0259375 1.94480469 0.520625 1.47945312 0 1 C0 0.67 0 0.34 0 0 Z " fill="#424858" transform="translate(228,39)"/>
<path d="M0 0 C20.96407212 16.84899759 33.25702743 39.4157275 37.0625 66.125 C39.1207665 88.7974758 35.35825331 112.20121385 24.0625 132.125 C23.15371094 133.77435547 23.15371094 133.77435547 22.2265625 135.45703125 C12.72590376 151.8020421 -0.45917963 165.741833 -16.9375 175.125 C-17.82566406 175.64835938 -18.71382812 176.17171875 -19.62890625 176.7109375 C-36.43946756 185.92284453 -59.45023682 190.46581538 -78.3125 185.875 C-80.19432416 185.31407165 -82.06969823 184.73098625 -83.9375 184.125 C-84.8965625 183.85816406 -85.855625 183.59132813 -86.84375 183.31640625 C-108.0612461 177.03491069 -125.62487076 161.28607051 -136.1875 142 C-148.58141039 118.26198727 -152.92006937 87.94096902 -144.9375 62.125 C-135.92979957 33.48126642 -118.79131514 8.29407108 -91.82421875 -6.140625 C-62.49115875 -21.0576913 -26.67334952 -20.44584449 0 0 Z M-63.9375 6.125 C-64.91203125 6.57101562 -65.8865625 7.01703125 -66.890625 7.4765625 C-86.7757801 17.41914005 -101.64831874 36.04961815 -108.94140625 56.84375 C-115.71261133 79.14889614 -115.16828686 103.26683584 -104.1875 124.1875 C-93.33423864 143.57349208 -77.77109 154.2332435 -57.1875 161.4375 C-39.1126146 165.32135967 -20.38961304 160.51673776 -4.9375 151.125 C13.90521788 138.92878214 27.29609483 119.88591479 32.484375 98.046875 C37.03803492 75.03243164 34.86195507 52.03831528 22.0625 32.125 C11.92444942 17.41356216 -2.30905822 6.21869475 -19.79223633 1.5065918 C-34.25093443 -1.06526949 -50.65400099 -0.24703379 -63.9375 6.125 Z " fill="#FBFBFB" transform="translate(621.9375,424.875)"/>
<path d="M0 0 C22.72630626 16.8560865 35.66438213 39.51869935 41 67 C41.29003906 68.42699219 41.29003906 68.42699219 41.5859375 69.8828125 C43.45184008 83.92989041 42.05536209 98.23923428 39 112 C38.73316406 113.21042969 38.46632813 114.42085937 38.19140625 115.66796875 C33.08314332 135.76046961 21.30289684 153.3230274 7 168 C6.14535156 168.96486328 6.14535156 168.96486328 5.2734375 169.94921875 C-4.39770242 180.58747266 -17.88305801 186.78875442 -31 192 C-32.33804688 192.55494141 -32.33804688 192.55494141 -33.703125 193.12109375 C-35.83733833 193.93775702 -37.90220797 194.54384853 -40.125 195.0625 C-43.88189968 195.9138131 -43.88189968 195.9138131 -47 197 C-74.39222982 198.90123795 -97.26824844 192.7674069 -118.59765625 175.14453125 C-137.34477221 158.4093009 -149.62066097 132.81344779 -151.20654297 107.73364258 C-151.30332089 104.23634932 -151.32915877 100.74858003 -151.3125 97.25 C-151.30686035 96.01080811 -151.3012207 94.77161621 -151.29541016 93.49487305 C-151.1776205 84.61574848 -150.57775574 76.54369802 -148 68 C-147.80664062 67.34596191 -147.61328125 66.69192383 -147.4140625 66.01806641 C-138.57244176 36.78477561 -120.05750491 11.62825001 -93.08203125 -3.1875 C-63.80368452 -18.6971107 -27.87156571 -19.08371692 0 0 Z M-116 19 C-117.10794922 20.06927734 -117.10794922 20.06927734 -118.23828125 21.16015625 C-137.56255171 41.17090168 -147.44101594 69.34547717 -147.3125 96.8125 C-147.30758545 98.05281982 -147.3026709 99.29313965 -147.29760742 100.57104492 C-147.18765154 109.1402733 -146.59008765 116.79109318 -144 125 C-143.48953125 126.79824219 -143.48953125 126.79824219 -142.96875 128.6328125 C-138.27975635 144.0621362 -130.88058771 156.19621091 -120 168 C-119.41734375 168.67546875 -118.8346875 169.3509375 -118.234375 170.046875 C-105.90625461 183.62026007 -85.15511295 192.12516526 -67.14453125 193.23828125 C-38.40076059 193.9779494 -14.2705068 183.46085421 6.5625 163.75 C15.62639454 154.29579421 22.36209552 143.77398586 28 132 C28.33 131.32904297 28.66 130.65808594 29 129.96679688 C40.43842161 105.71472358 41.71067332 76.14210579 32.99902344 50.9362793 C28.56586877 38.73643418 22.67862986 27.72071675 14 18 C13.32324219 17.24074219 12.64648438 16.48148437 11.94921875 15.69921875 C-3.83966733 -1.0133316 -23.98177127 -9.7470199 -46.79492188 -10.40063477 C-74.41712591 -10.72466777 -96.24667973 -0.10884 -116 19 Z " fill="#191717" transform="translate(621,419)"/>
<path d="M0 0 C1.10730469 -0.00773437 2.21460938 -0.01546875 3.35546875 -0.0234375 C13.53343448 0.00048251 22.83719349 1.14513676 32.125 5.4375 C32.80578613 5.74574707 33.48657227 6.05399414 34.18798828 6.37158203 C55.71391028 16.36013796 70.6662674 33.28547399 78.93896484 55.42871094 C89.61439962 86.15915326 85.09046923 119.39155695 71.15576172 148.2578125 C57.37528979 175.60421866 33.89854961 195.92902655 5.1875 206.125 C-3.93012521 208.75406623 -12.51452649 209.56549234 -22 209.5 C-23.12792969 209.50773438 -24.25585938 209.51546875 -25.41796875 209.5234375 C-31.61658718 209.50893781 -36.94814577 209.06713443 -42.875 207.25 C-43.85984375 206.97800781 -44.8446875 206.70601562 -45.859375 206.42578125 C-67.10853283 199.79292266 -83.83938373 184.52557787 -94.09375 164.96875 C-108.10892267 136.5743742 -107.84836221 105.40236287 -97.83520508 75.76782227 C-86.9835773 45.89134002 -64.5584548 20.86236642 -35.875 7.25 C-23.92962033 2.06043992 -12.95636563 -0.08987074 0 0 Z M-63.875 31.25 C-65.174375 32.4875 -65.174375 32.4875 -66.5 33.75 C-67.28375 34.575 -68.0675 35.4 -68.875 36.25 C-69.45507812 36.84683594 -70.03515625 37.44367188 -70.6328125 38.05859375 C-84.46033655 52.83506553 -92.86218394 70.84745312 -97.875 90.25 C-98.11089844 91.16136719 -98.34679687 92.07273437 -98.58984375 93.01171875 C-104.58224747 118.07483794 -101.03129278 145.92614516 -87.5625 168 C-75.15850961 186.34700117 -60.49875785 198.79785593 -38.875 204.25 C-37.99110596 204.51043091 -37.99110596 204.51043091 -37.08935547 204.77612305 C-22.05329468 207.99387321 -3.87175598 206.57856623 10.125 200.25 C10.77678223 199.96592285 11.42856445 199.6818457 12.10009766 199.38916016 C40.01138311 187.09006255 60.88694048 164.83823432 72.20947266 136.53955078 C77.85509073 121.42472802 80.47836761 107.43357174 80.4375 91.25 C80.45361328 89.97382813 80.46972656 88.69765625 80.48632812 87.3828125 C80.49050506 79.21271887 79.49351468 72.05930203 77.125 64.25 C76.93156006 63.54762207 76.73812012 62.84524414 76.53881836 62.12158203 C73.86271679 52.49667512 69.86782374 44.47243549 64.125 36.25 C63.50753906 35.36570312 62.89007813 34.48140625 62.25390625 33.5703125 C49.78513923 16.92800808 31.44837734 7.4611562 11.3125 3.5 C9.91881246 3.38628909 8.52208186 3.30879974 7.125 3.25 C5.98804688 3.18683594 4.85109375 3.12367188 3.6796875 3.05859375 C-22.46095931 2.26567785 -45.21049248 13.34730911 -63.875 31.25 Z " fill="#171515" transform="translate(248.875,294.75)"/>
<path d="M0 0 C0.33 0.66 0.66 1.32 1 2 C-2.3 1.67 -5.6 1.34 -9 1 C-9.57105469 2.07894531 -10.14210938 3.15789062 -10.73046875 4.26953125 C-19.67762623 20.91221994 -30.29291744 36.19343465 -42 51 C-42.86979853 52.12529154 -43.73825347 53.2516227 -44.60546875 54.37890625 C-63.2679389 78.54750057 -84.55273217 104.12056576 -109.74609375 121.6171875 C-110.71059448 122.29019897 -110.71059448 122.29019897 -111.69458008 122.97680664 C-112.95301022 123.8475378 -114.21951492 124.70674746 -115.49487305 125.55249023 C-118.88676729 127.83821828 -118.88676729 127.83821828 -120.8984375 131.29296875 C-120.93195312 131.85628906 -120.96546875 132.41960937 -121 133 C-121.66 133 -122.32 133 -123 133 C-123.06993164 132.30777344 -123.13986328 131.61554688 -123.21191406 130.90234375 C-127.69608634 87.12759446 -137.102701 46.03768194 -154.4375 5.5 C-154.80681641 4.62730469 -155.17613281 3.75460937 -155.55664062 2.85546875 C-157.86222485 -2.53887909 -160.35177077 -7.78517943 -163.06665039 -12.98632812 C-164 -15 -164 -15 -164 -17 C-160.7521185 -17.65678773 -157.5013813 -18.29828286 -154.25 -18.9375 C-153.34894531 -19.11990234 -152.44789063 -19.30230469 -151.51953125 -19.49023438 C-106.16680031 -28.33562516 -39.72004881 -25.25507041 0 0 Z M-158 -14 C-157.31286677 -10.85286637 -156.23829971 -8.07935974 -154.92578125 -5.140625 C-154.29978027 -3.72656372 -154.29978027 -3.72656372 -153.66113281 -2.28393555 C-152.99355957 -0.78213745 -152.99355957 -0.78213745 -152.3125 0.75 C-148.22115223 10.06732587 -144.36625054 19.39755456 -141 29 C-140.75830078 29.68271973 -140.51660156 30.36543945 -140.26757812 31.06884766 C-131.35379593 56.41524521 -123.14754889 84.42374193 -121.68359375 111.40234375 C-121.64169922 112.14677734 -121.59980469 112.89121094 -121.55664062 113.65820312 C-121.51732422 114.41037109 -121.47800781 115.16253906 -121.4375 115.9375 C-121.39431641 116.71673828 -121.35113281 117.49597656 -121.30664062 118.29882812 C-121.20171923 120.19907117 -121.1004755 122.09951669 -121 124 C-115.84196647 122.42755094 -112.24527454 119.21733122 -108.1875 115.8125 C-107.44121338 115.19028564 -106.69492676 114.56807129 -105.92602539 113.92700195 C-89.32954802 99.95405879 -73.61851254 84.66301581 -60.12109375 67.64453125 C-58.17795448 65.22186958 -56.16753637 62.87262389 -54.12890625 60.53027344 C-39.29657474 43.39745991 -21.68631216 22.01294602 -13 1 C-13.06068795 -1.07369355 -13.06068795 -1.07369355 -14 -3 C-15.94587798 -4.13878815 -15.94587798 -4.13878815 -18.42578125 -4.78125 C-19.35753174 -5.06387695 -20.28928223 -5.34650391 -21.24926758 -5.63769531 C-22.26013428 -5.92225586 -23.27100098 -6.20681641 -24.3125 -6.5 C-25.34979248 -6.80260742 -26.38708496 -7.10521484 -27.45581055 -7.41699219 C-37.20552744 -10.19263819 -47.02060282 -12.25834158 -57 -14 C-58.19761963 -14.2163208 -58.19761963 -14.2163208 -59.41943359 -14.43701172 C-61.77815217 -14.86277838 -64.13840439 -15.27801255 -66.5 -15.6875 C-67.52154175 -15.86684082 -67.52154175 -15.86684082 -68.5637207 -16.04980469 C-81.74172676 -18.23689409 -94.99267366 -18.23673602 -108.3125 -18.25 C-109.77659302 -18.25300613 -109.77659302 -18.25300613 -111.27026367 -18.256073 C-127.02047677 -18.26400313 -142.64873075 -17.95508395 -158 -14 Z " fill="#0D0C0D" transform="translate(891,324)"/>
<path d="M0 0 C1.19351074 0.00427002 2.38702148 0.00854004 3.61669922 0.01293945 C12.60914887 0.18655545 19.6855882 1.31759732 27.75 5.5 C28.56726563 5.88414062 29.38453125 6.26828125 30.2265625 6.6640625 C36.35044112 9.75756819 41.57269048 14.03888497 46.75 18.5 C47.3790625 19.03238281 48.008125 19.56476563 48.65625 20.11328125 C56.47464133 27.27421695 62.19552602 37.56651467 65.75 47.5 C66.12125 48.49257813 66.4925 49.48515625 66.875 50.5078125 C73.10234181 69.83851937 71.64561485 94.0835037 63.25390625 112.5703125 C52.95957954 132.6241957 38.51350226 148.9801998 17.296875 157.69140625 C-1.14597999 163.54672984 -18.76113732 163.07599254 -36.3828125 155.078125 C-53.50837975 146.20526843 -67.0403357 130.90721918 -73.25 112.5 C-80.60432001 89.00703331 -78.64556267 64.39217145 -67.25 42.5 C-55.75661622 22.39289344 -38.50800681 7.6329218 -16.07861328 1.11083984 C-10.75157608 -0.03953536 -5.43063535 -0.02933625 0 0 Z M-52.25 27.5 C-62.76189002 39.94789278 -68.62305341 53.72743228 -72.25 69.5 C-72.54197266 70.71236328 -72.54197266 70.71236328 -72.83984375 71.94921875 C-76.16353724 92.61942682 -70.45584297 114.79151132 -58.43359375 131.72265625 C-48.1999838 144.73892937 -34.87327971 153.97534406 -18.5 157.25 C2.59219629 159.02572905 18.41391483 154.65486424 35.75 142.5 C36.37261719 142.06429687 36.99523437 141.62859375 37.63671875 141.1796875 C53.50294614 128.82696035 62.37321904 107.74800434 65.75 88.5 C65.96813912 84.43967935 65.93512937 80.37813207 65.9375 76.3125 C65.94974609 75.22646484 65.96199219 74.14042969 65.97460938 73.02148438 C66.0084959 54.21446118 58.93818583 36.40613625 45.9765625 22.59375 C30.59963231 8.1340402 13.37576446 2.84594125 -7.3046875 3.41113281 C-24.4789143 4.19569839 -40.82031117 15.40963551 -52.25 27.5 Z " fill="#0E1213" transform="translate(586.25,425.5)"/>
<path d="M0 0 C22.00486139 6.47013392 41.42610121 32.89070437 54.77539062 50.41552734 C56.66887259 52.86542725 58.64797274 55.24234128 60.625 57.625 C67.90076426 66.49193669 74.58480656 75.75262442 81.1875 85.125 C81.76975342 85.94798584 82.35200684 86.77097168 82.9519043 87.61889648 C94 103.40121672 94 103.40121672 94 107 C93.23671387 107.33620361 92.47342773 107.67240723 91.68701172 108.01879883 C48.72650509 126.98749502 5.8472852 148.34313099 -30.06518555 179.08959961 C-34.69336029 183 -34.69336029 183 -38 183 C-37.17113281 182.1440625 -36.34226563 181.288125 -35.48828125 180.40625 C-33.47970427 177.97470284 -33.02037715 177.22916913 -32.73046875 173.96875 C-32.88128906 172.8240625 -33.03210938 171.679375 -33.1875 170.5 C-34.55620574 157.38190104 -34.16227176 144.17074 -34 131 C-33.99274902 130.15260254 -33.98549805 129.30520508 -33.97802734 128.43212891 C-33.46789909 90.13792519 -21.98325577 40.34367684 4 11 C5.01207608 9.67580976 6.01596009 8.34515547 7 7 C6.4946875 6.57847656 5.989375 6.15695313 5.46875 5.72265625 C4.49421875 4.90087891 4.49421875 4.90087891 3.5 4.0625 C2.52546875 3.24458984 2.52546875 3.24458984 1.53125 2.41015625 C1.0259375 1.94480469 0.520625 1.47945312 0 1 C0 0.67 0 0.34 0 0 Z M5 15 C3.17837611 17.25793675 1.57973375 19.63084387 0 22.0625 C-0.65681763 23.06494751 -0.65681763 23.06494751 -1.3269043 24.08764648 C-7.17346391 33.18168935 -10.84628438 42.84788509 -14.32763672 53.05175781 C-15.02420364 55.07013257 -15.74733938 57.07773117 -16.47265625 59.0859375 C-26.04136685 86.0509079 -30.20886385 114.82634787 -30.13037109 143.36450195 C-30.12498442 145.6942386 -30.13036338 148.02378459 -30.13671875 150.35351562 C-30.1396269 157.62940403 -30.03923681 164.78307767 -29 172 C-25.4148098 170.28772 -22.60419731 168.18311126 -19.5 165.6875 C-6.22415941 155.25482118 8.40550614 146.45776105 23 138 C23.85996582 137.49968262 24.71993164 136.99936523 25.60595703 136.48388672 C37.19737119 129.76298238 48.81367493 123.3740852 61.04003906 117.88525391 C63.69077805 116.68799686 66.32237803 115.45141838 68.95483398 114.21459961 C75.61124538 111.08739807 82.29797551 108.02808442 89 105 C85.83290837 99.06427946 82.41994709 93.46594368 78.5 88 C77.98663086 87.27868896 77.47326172 86.55737793 76.94433594 85.81420898 C65.35687012 69.64251764 52.96859559 54.08123739 40 39 C39.31679688 38.20207031 38.63359375 37.40414062 37.9296875 36.58203125 C32.71294127 30.63903212 27.17301531 25.00730005 21.625 19.375 C20.42798462 18.14583862 20.42798462 18.14583862 19.20678711 16.8918457 C18.45018799 16.130896 17.69358887 15.36994629 16.9140625 14.5859375 C16.2329541 13.8954834 15.5518457 13.2050293 14.85009766 12.49365234 C10.77258721 9.20172718 8.24948363 11.9777868 5 15 Z " fill="#0F0E0F" transform="translate(228,39)"/>
<path d="M0 0 C12.82170799 10.93165542 21.96085478 24.9865257 24 42 C25.49824469 66.39131797 20.7269131 90.76750544 4.09423828 109.65283203 C1.79078872 112.16575878 -0.59607574 114.58262722 -3 117 C-3.74636719 117.79277344 -4.49273437 118.58554687 -5.26171875 119.40234375 C-19.97552541 134.01343623 -38.65306188 139.1847707 -58.81030273 139.33056641 C-73.57507621 139.14943997 -86.33985655 133.42053075 -96.89453125 123.17578125 C-97.58933594 122.45777344 -98.28414062 121.73976563 -99 121 C-99.56074219 120.43667969 -100.12148437 119.87335938 -100.69921875 119.29296875 C-113.45307788 105.53486875 -117.63114513 86.80566311 -117.26953125 68.48046875 C-116.44046662 49.83672472 -108.81395472 32.28925952 -97 18 C-96.31292969 17.15050781 -95.62585938 16.30101562 -94.91796875 15.42578125 C-71.27648425 -12.39023565 -30.71762034 -22.33242631 0 0 Z M-83 9 C-83.639375 9.4846875 -84.27875 9.969375 -84.9375 10.46875 C-95.58795449 18.88604468 -103.22837321 31.48023324 -108 44 C-108.41121094 44.969375 -108.82242188 45.93875 -109.24609375 46.9375 C-112.25659452 55.27106615 -112.38375255 63.39521751 -112.4375 72.1875 C-112.44765137 73.37545166 -112.45780273 74.56340332 -112.46826172 75.78735352 C-112.30564899 92.23070731 -106.71781112 107.01882285 -95.17578125 118.890625 C-94.09876953 119.93476563 -94.09876953 119.93476563 -93 121 C-92.43667969 121.57234375 -91.87335938 122.1446875 -91.29296875 122.734375 C-79.18866563 134.16130836 -64.41207028 135.59537957 -48.64453125 135.3046875 C-41.8901535 135.03562422 -36.16424598 133.80912365 -30 131 C-29.39752441 130.72623535 -28.79504883 130.4524707 -28.17431641 130.17041016 C-19.2100411 125.99913955 -12.02194783 121.03483214 -5 114 C-4.39027344 113.46117187 -3.78054688 112.92234375 -3.15234375 112.3671875 C11.22338358 99.33406796 19.32390397 77.94473269 20.31640625 58.98046875 C20.82744859 43.02346194 17.86264599 30.07413632 10 16 C9.34 16 8.68 16 8 16 C7.773125 15.46375 7.54625 14.9275 7.3125 14.375 C1.2886559 3.47471067 -10.67021551 -3.26215888 -22.3125 -6.75 C-44.50856606 -11.8700051 -65.91357883 -5.68364319 -83 9 Z " fill="#0D1113" transform="translate(301,331)"/>
<path d="M0 0 C4.36386192 3.2201732 7.79797747 6.57752616 9.5390625 11.80078125 C10.02420732 17.31234458 10.30643566 22.17749187 7.9140625 27.23828125 C3.06368283 32.47158563 -0.75595355 35.93209205 -8.0859375 36.23828125 C-13.59960512 36.18539235 -16.70547356 35.21708745 -20.83984375 31.58984375 C-25.41220649 26.54371813 -27.89732692 20.87534663 -27.80859375 13.9921875 C-26.97699379 8.75030462 -23.61890747 4.87603908 -19.8359375 1.36328125 C-14.25650143 -2.30740038 -6.04020489 -2.94340143 0 0 Z " fill="#FAFCFC" transform="translate(302.4609375,341.19921875)"/>
<path d="M0 0 C5.32685527 2.80021999 9.09490819 7.28472457 11 13 C11.80271788 19.0777211 10.09165828 23.83723083 7 29 C2.64516579 33.24596336 -1.28876587 35.28975863 -7.375 35.375 C-12.40980517 35.26787649 -15.17382515 34.46177724 -19 31 C-24.1820214 25.59205941 -25.4727674 21.25031476 -25.4140625 13.86328125 C-24.74140789 9.21181119 -22.40985119 6.1361755 -19 3 C-13.19710044 -1.27268289 -6.92647382 -1.09447668 0 0 Z " fill="#FAFCFC" transform="translate(621,444)"/>
<path d="M0 0 C3.50151214 3.42661349 6.72680171 6.98208703 9.9375 10.6875 C23.64770015 25.90067114 44.32120486 37.78471095 64.94775391 39.20263672 C68.21716207 39.3429611 71.47773702 39.41042254 74.75 39.4375 C75.77923584 39.4478125 76.80847168 39.458125 77.86889648 39.46875 C87.42803869 39.35867271 96.2548718 37.29805128 105.125 33.75 C107.8203125 32.671875 107.8203125 32.671875 110 32 C110.66 32.33 111.32 32.66 112 33 C95.0043195 44.06009577 75.48026912 47.0950849 55.53540039 42.97436523 C41.74122213 39.54917822 28.99832439 32.92672219 18 24 C17.3709375 23.53335938 16.741875 23.06671875 16.09375 22.5859375 C8.89334971 16.98926273 2.47054277 8.78415206 0 0 Z " fill="#161313" transform="translate(313,521)"/>
<path d="M0 0 C0.66 0.33 1.32 0.66 2 1 C1.4946875 1.47050781 0.989375 1.94101562 0.46875 2.42578125 C-0.1809375 3.04839844 -0.830625 3.67101562 -1.5 4.3125 C-2.1496875 4.92738281 -2.799375 5.54226563 -3.46875 6.17578125 C-5.3214614 7.98601529 -5.3214614 7.98601529 -5 11 C-5.66 11 -6.32 11 -7 11 C-7.24878906 11.5671875 -7.49757812 12.134375 -7.75390625 12.71875 C-9.19068329 15.3490879 -10.91012211 17.29517935 -12.9375 19.5 C-15.85866949 22.67276042 -15.85866949 22.67276042 -18.37890625 26.15625 C-20.57926121 28.65882239 -22.83474965 29.15593324 -26 30 C-19.35612429 18.32642965 -10.51135789 8.36130741 0 0 Z " fill="#1E1B1B" transform="translate(190,316)"/>
<path d="M0 0 C2.06365451 3.09548177 2.70846051 5.28892843 3.5625 8.875 C3.81128906 9.90367187 4.06007813 10.93234375 4.31640625 11.9921875 C4.54199219 12.98476563 4.76757812 13.97734375 5 15 C5.17708496 15.76417236 5.35416992 16.52834473 5.53662109 17.31567383 C6.04306421 20.2494684 6.11292044 22.98051466 6.09765625 25.95703125 C6.09282227 27.62475586 6.09282227 27.62475586 6.08789062 29.32617188 C6.07951172 30.47666016 6.07113281 31.62714844 6.0625 32.8125 C6.05798828 33.98232422 6.05347656 35.15214844 6.04882812 36.35742188 C6.0370693 39.23833358 6.02063426 42.11914044 6 45 C5.67 45 5.34 45 5 45 C4.67 42.36 4.34 39.72 4 37 C3.67 37 3.34 37 3 37 C2.96261719 35.68386719 2.92523437 34.36773437 2.88671875 33.01171875 C2.50711866 20.41105069 2.50711866 20.41105069 -0.37890625 8.19140625 C-1.08722115 5.69225746 -1.17295971 3.58552599 -1 1 C-0.67 0.67 -0.34 0.34 0 0 Z " fill="#B7B7B7" transform="translate(653,471)"/>
<path d="M0 0 C0.66 0.33 1.32 0.66 2 1 C1.01 1.99 0.02 2.98 -1 4 C-0.67 4.66 -0.34 5.32 0 6 C-0.845625 6.6290625 -1.69125 7.258125 -2.5625 7.90625 C-9.1741141 12.87690458 -15.36466725 17.90498754 -21 24 C-21.66 23.67 -22.32 23.34 -23 23 C-6.23287671 4.50684932 -6.23287671 4.50684932 0 0 Z " fill="#161314" transform="translate(470,318)"/>
<path d="M0 0 C-2.37413326 0.9605272 -4.74925519 1.91847353 -7.125 2.875 C-7.79015625 3.14441406 -8.4553125 3.41382813 -9.140625 3.69140625 C-21.10177223 8.49931837 -21.10177223 8.49931837 -25 7 C-20.68759959 4.07925072 -16.32306289 2.67700107 -11.375 1.25 C-10.611875 1.01667969 -9.84875 0.78335938 -9.0625 0.54296875 C-3.37239583 -1.12413194 -3.37239583 -1.12413194 0 0 Z " fill="#0F0D0D" transform="translate(520,791)"/>
<path d="M0 0 C0.66 0.33 1.32 0.66 2 1 C-5.92 8.92 -13.84 16.84 -22 25 C-22.66 24.67 -23.32 24.34 -24 24 C-16 16 -8 8 0 0 Z " fill="#E2C0C8" transform="translate(388,145)"/>
<path d="M0 0 C0.33 0 0.66 0 1 0 C1 9.24 1 18.48 1 28 C0.01 27.67 -0.98 27.34 -2 27 C-1.93941406 26.3915625 -1.87882813 25.783125 -1.81640625 25.15625 C-1.01587372 16.78144813 -0.49518882 8.39713805 0 0 Z " fill="#F8F8F8" transform="translate(657,492)"/>
<path d="M0 0 C0.33 0 0.66 0 1 0 C1.83779436 9.70943816 2.12276617 19.26055028 2 29 C1.67 29 1.34 29 1 29 C-1.59930938 19.24721934 -0.80830997 9.92910488 0 0 Z " fill="#443A3C" transform="translate(86,500)"/>
<path d="M0 0 C1.8709949 2.80649235 3.23017952 5.49960473 4.625 8.5625 C5.07101562 9.53316406 5.51703125 10.50382812 5.9765625 11.50390625 C7 14 7 14 7 16 C6.34 16 5.68 16 5 16 C4.67 16.66 4.34 17.32 4 18 C3.13237686 15.75438718 2.2807897 13.50473745 1.4375 11.25 C1.19064453 10.61578125 0.94378906 9.9815625 0.68945312 9.328125 C-0.58197079 5.88990821 -1.46686355 3.47831118 0 0 Z " fill="#D7B8BF" transform="translate(324,337)"/>
<path d="M0 0 C3.30616284 3.80208727 7 9.83581485 7 15 C6.34 15 5.68 15 5 15 C4.67 15.99 4.34 16.98 4 18 C3.32678716 15.75194998 2.66165877 13.50147776 2 11.25 C1.62875 9.99703125 1.2575 8.7440625 0.875 7.453125 C0 4 0 4 0 0 Z " fill="#3E3537" transform="translate(97,564)"/>
<path d="M0 0 C-1 3 -1 3 -4.0546875 4.640625 C-5.32326378 5.18847975 -6.59699595 5.72451331 -7.875 6.25 C-8.51308594 6.53101563 -9.15117188 6.81203125 -9.80859375 7.1015625 C-14.61480415 9.12839862 -14.61480415 9.12839862 -18 8 C-15.3773768 6.66180502 -12.75213401 5.3292849 -10.125 4 C-9.00544922 3.42765625 -9.00544922 3.42765625 -7.86328125 2.84375 C-7.14785156 2.4828125 -6.43242188 2.121875 -5.6953125 1.75 C-5.03547363 1.41484375 -4.37563477 1.0796875 -3.69580078 0.734375 C-2 0 -2 0 0 0 Z " fill="#2C2628" transform="translate(572,769)"/>
<path d="M0 0 C2.40034102 3.60051153 4.32187705 6.96144535 3.625 11.375 C3.41875 11.91125 3.2125 12.4475 3 13 C2.34 13 1.68 13 1 13 C-0.2834998 8.9088444 -1.38021934 5.3091525 -1 1 C-0.67 0.67 -0.34 0.34 0 0 Z " fill="#D3D3D3" transform="translate(653,471)"/>
<path d="M0 0 C2.46301423 2.46301423 2.76766521 4.27360036 3.625 7.625 C3.88539063 8.62789062 4.14578125 9.63078125 4.4140625 10.6640625 C4.60742188 11.43492187 4.80078125 12.20578125 5 13 C4.34 13 3.68 13 3 13 C2.67 13.99 2.34 14.98 2 16 C0.80911014 10.61972975 -0.2919519 5.54708616 0 0 Z " fill="#3D3436" transform="translate(530,687)"/>
<path d="M0 0 C1.41875765 0.76697796 2.83491452 1.53876778 4.25 2.3125 C5.03890625 2.74175781 5.8278125 3.17101562 6.640625 3.61328125 C8.89727134 4.9396214 10.93998597 6.38884224 13 8 C12.67 8.99 12.34 9.98 12 11 C9.33333333 9 6.66666667 7 4 5 C3.25234375 4.48050781 2.5046875 3.96101562 1.734375 3.42578125 C0.87585938 2.72001953 0.87585938 2.72001953 0 2 C0 1.34 0 0.68 0 0 Z " fill="#352D2F" transform="translate(247,750)"/>
<path d="M0 0 C0.66 0.33 1.32 0.66 2 1 C0.56542672 1.9834496 -0.87277406 2.96160921 -2.3125 3.9375 C-3.11300781 4.48277344 -3.91351562 5.02804687 -4.73828125 5.58984375 C-7 7 -7 7 -10 8 C-12.1875 7.0625 -12.1875 7.0625 -14 6 C-11.71220962 4.96959833 -9.42048864 3.95047982 -7.125 2.9375 C-6.47402344 2.64294922 -5.82304688 2.34839844 -5.15234375 2.04492188 C-3.45989459 1.30338487 -1.73131425 0.64560999 0 0 Z " fill="#3C3335" transform="translate(609,282)"/>
<path d="M0 0 C3.26008643 3.16952847 6.22237877 6.39937989 9 10 C8.34 10 7.68 10 7 10 C6.67 10.66 6.34 11.32 6 12 C4.99466333 10.37829621 3.99588093 8.75252763 3 7.125 C2.443125 6.22007812 1.88625 5.31515625 1.3125 4.3828125 C0 2 0 2 0 0 Z " fill="#362E30" transform="translate(313,521)"/>
<path d="M0 0 C-2.52956528 3.0916909 -5.22454612 3.90931332 -9 5 C-9.33 3.68 -9.66 2.36 -10 1 C-6.52674819 -0.1577506 -3.63932552 -0.06866652 0 0 Z " fill="#1D191A" transform="translate(599,289)"/>
<path d="M0 0 C-4.95 2.97 -4.95 2.97 -10 6 C-10.33 5.34 -10.66 4.68 -11 4 C-11.66 3.67 -12.32 3.34 -13 3 C-11.21189234 2.30329584 -9.41937948 1.61788811 -7.625 0.9375 C-6.62726563 0.55464844 -5.62953125 0.17179688 -4.6015625 -0.22265625 C-2 -1 -2 -1 0 0 Z " fill="#43393B" transform="translate(425,554)"/>
<path d="M0 0 C0.99 0.33 1.98 0.66 3 1 C0.03 3.97 -2.94 6.94 -6 10 C-6.66 9.67 -7.32 9.34 -8 9 C-5.36 6.03 -2.72 3.06 0 0 Z " fill="#53474A" transform="translate(455,332)"/>
<path d="M0 0 C-8.03501094 4.07877462 -8.03501094 4.07877462 -12.0625 3.75 C-12.701875 3.5025 -13.34125 3.255 -14 3 C-9.5718927 0.52025991 -4.9510693 -1.65035643 0 0 Z " fill="#4B4042" transform="translate(520,791)"/>
<path d="M0 0 C0.66 0.33 1.32 0.66 2 1 C0.515 2.485 0.515 2.485 -1 4 C-0.67 4.66 -0.34 5.32 0 6 C-2.475 7.485 -2.475 7.485 -5 9 C-5 6 -5 6 -4 3 C-1.9375 1.3125 -1.9375 1.3125 0 0 Z " fill="#211C1D" transform="translate(470,318)"/>
<path d="M0 0 C0.66 0 1.32 0 2 0 C2.67154933 1.28913487 3.33708859 2.58140204 4 3.875 C4.37125 4.59429687 4.7425 5.31359375 5.125 6.0546875 C6 8 6 8 6 10 C5.01 9.67 4.02 9.34 3 9 C2.05078125 6.93359375 2.05078125 6.93359375 1.3125 4.4375 C1.06113281 3.61121094 0.80976563 2.78492188 0.55078125 1.93359375 C0.36902344 1.29550781 0.18726563 0.65742188 0 0 Z " fill="#0F6279" transform="translate(309,347)"/>
<path d="M0 0 C0.99 0 1.98 0 3 0 C3 2.31 3 4.62 3 7 C2.01 6.67 1.02 6.34 0 6 C0 4.02 0 2.04 0 0 Z " fill="#D5D5D5" transform="translate(655,513)"/>
<path d="M0 0 C0.66 0.33 1.32 0.66 2 1 C0.15794162 3.54379491 -1.72478134 5.83312509 -4 8 C-4 6.33333333 -4 4.66666667 -4 3 C-2 1.375 -2 1.375 0 0 Z " fill="#201E1F" transform="translate(282,481)"/>
</svg>
